<?xml version="1.0" encoding="UTF-8" standalone="no"?><!-- Generator: Gravit.io --><svg xmlns="http://www.w3.org/2000/svg" xmlns:xlink="http://www.w3.org/1999/xlink" style="isolation:isolate" viewBox="0 0 300 300" width="300pt" height="300pt"><defs><clipPath id="_clipPath_F4y09ZjoRTM4lS2lGKsVWPMudYqTVW3e"><rect width="300" height="300"/></clipPath></defs><g clip-path="url(#_clipPath_F4y09ZjoRTM4lS2lGKsVWPMudYqTVW3e)"><rect width="300" height="300" style="fill:rgb(29,209,161)" fill-opacity="0"/><g><rect x="81.333" y="81.333" width="137.333" height="137.333" transform="matrix(1,0,0,1,0,0)" fill="rgb(29,209,161)"/><path d=" M 218.64 218.66 L 218.64 160.87 L 151.58 99.055 L 120.63 132.63 L 213.959 218.66 L 218.64 218.66 L 218.64 218.66 Z " fill="rgb(26,195,150)"/><path d=" M 196.46 218.621 L 156.936 182.188 L 142.483 197.867 L 164.998 218.621 L 196.46 218.621 L 196.46 218.621 Z " fill="rgb(26,195,150)"/><path d=" M 161.126 190.634 C 161.126 196.537 156.353 201.328 150.437 201.328 C 144.543 201.328 139.748 196.537 139.748 190.634 C 139.748 184.732 144.543 179.941 150.437 179.941 C 156.353 179.941 161.126 184.727 161.126 190.634 Z  M 150.775 98.672 C 133.542 98.672 120.577 110.191 120.577 132.891 L 137.494 132.891 C 137.494 123.036 141.369 114.973 150.429 114.973 C 155.762 114.973 161.421 118.515 161.909 125.286 C 162.435 132.412 158.628 136.026 153.816 140.607 C 141.309 152.498 141.771 157.926 141.771 171.386 L 158.637 171.386 C 158.637 165.176 157.965 160.659 166.498 151.459 C 172.192 145.316 179.27 137.677 179.42 126.039 C 179.621 109.088 167.653 98.672 150.775 98.672 Z " fill="rgb(255,255,255)"/></g></g></svg>